<svg width="256" height="256" viewBox="0 0 256 256" fill="none" xmlns="http://www.w3.org/2000/svg">
<rect width="256" height="256" fill="#F94C4C"/>
<path d="M15 86.0669C15.6083 84.3541 16.46 82.6413 17.555 80.9285C18.65 79.2157 19.9883 77.6864 21.5699 76.3406C23.2732 74.8725 25.2199 73.7102 27.4099 72.8538C29.5998 71.8751 32.0331 71.3857 34.7098 71.3857C38.2381 71.3857 41.3405 72.3033 44.0172 74.1384C46.6938 75.8512 49.4313 78.8486 52.2296 83.1306L66.4644 104.969L87.4517 73.7714C88.425 73.282 89.7633 72.8538 91.4666 72.4868C93.2916 71.9974 95.0558 71.7527 96.7591 71.7527C102.356 71.7527 106.736 73.0985 109.899 75.7901C113.062 78.4816 114.644 81.7849 114.644 85.6998C114.644 89.1254 113.731 92.184 111.906 94.8756C110.203 97.5671 107.831 100.809 104.789 104.602L85.9917 127.725L115.739 170.484C114.766 175.01 112.636 178.619 109.351 181.311C106.188 183.88 101.869 185.165 96.3941 185.165C92.8658 185.165 89.8242 184.308 87.2692 182.596C84.7142 180.761 82.0984 177.702 79.4218 173.42L64.6394 149.93L41.6447 184.798C40.6714 184.92 39.7589 184.981 38.9072 184.981C38.0556 185.104 37.2039 185.165 36.3523 185.165C29.4173 185.165 24.3074 183.758 21.0224 180.944C17.7375 178.13 16.095 174.643 16.095 170.484C16.095 166.936 16.825 163.877 18.285 161.308C19.8666 158.616 22.0566 155.497 24.8549 151.949L44.0172 127.174L15 86.0669Z" fill="#FCCA28"/>
<path d="M124.479 127.908C124.479 118.365 125.939 109.924 128.859 102.583C131.9 95.2426 135.976 89.1254 141.086 84.2317C146.318 79.2157 152.401 75.423 159.336 72.8538C166.392 70.2846 173.997 69 182.148 69C190.3 69 197.843 70.2846 204.778 72.8538C211.834 75.423 217.979 79.2157 223.21 84.2317C228.442 89.1254 232.518 95.2426 235.438 102.583C238.479 109.924 240 118.365 240 127.908C240 137.451 238.54 145.954 235.62 153.417C232.7 160.757 228.624 166.936 223.393 171.952C218.283 176.846 212.199 180.577 205.143 183.146C198.086 185.715 190.421 187 182.148 187C173.875 187 166.21 185.715 159.153 183.146C152.097 180.455 146.014 176.601 140.904 171.585C135.794 166.569 131.779 160.39 128.859 153.05C125.939 145.709 124.479 137.329 124.479 127.908ZM157.328 127.908C157.328 139.041 159.579 147.361 164.081 152.866C168.582 158.372 174.605 161.124 182.148 161.124C189.813 161.124 195.896 158.372 200.398 152.866C204.9 147.361 207.15 139.041 207.15 127.908C207.15 116.897 204.9 108.639 200.398 103.134C196.018 97.6283 189.996 94.8756 182.331 94.8756C174.787 94.8756 168.704 97.6283 164.081 103.134C159.579 108.517 157.328 116.775 157.328 127.908Z" fill="#FCCA28"/>
</svg>
